<?xml version="1.0" encoding="utf-8"?>
<!-- Generator: Adobe Illustrator 24.3.0, SVG Export Plug-In . SVG Version: 6.00 Build 0)  -->
<svg version="1.1" id="Capa_1" xmlns="http://www.w3.org/2000/svg" xmlns:xlink="http://www.w3.org/1999/xlink" x="0px" y="0px"
	 viewBox="0 0 90 90" style="enable-background:new 0 0 90 90;" xml:space="preserve">
<style type="text/css">
	.st0{fill:#FFFFFF;}
</style>
<path class="st0" d="M73.9,0H16.1C7.2,0,0,7.2,0,16.1v57.8C0,82.8,7.2,90,16.1,90h57.8C82.8,90,90,82.8,90,73.9V16.1
	C90,7.2,82.8,0,73.9,0z M26.6,70.5c-3.9,0-7-3.1-7-7c0-3.9,3.1-7,7-7c3.9,0,7,3.2,7,7C33.6,67.3,30.5,70.5,26.6,70.5z M43.3,70.5
	c0-13.3-10.7-23.9-23.8-23.9v-9.8c18.5,0,33.6,15.1,33.6,33.7H43.3z M60.6,70.5c0-22.7-18.4-41.3-41-41.3v-9.8
	c28,0,50.8,22.9,50.8,51H60.6z"/>
</svg>
