<?xml version="1.0" encoding="utf-8"?>
<!-- Generator: Adobe Illustrator 24.3.0, SVG Export Plug-In . SVG Version: 6.00 Build 0)  -->
<svg version="1.1" id="Capa_1" xmlns="http://www.w3.org/2000/svg" xmlns:xlink="http://www.w3.org/1999/xlink" x="0px" y="0px"
	 viewBox="0 0 90 90" style="enable-background:new 0 0 90 90;" xml:space="preserve">
<style type="text/css">
	.st0{fill:#FFFFFF;}
</style>
<path class="st0" d="M89.6,84.8c0,2.9-2.2,5-5,5C38,89.8,0,51.8,0,5.2c0-2.9,2.2-5,5-5h17.6c2.9,0,5,2.2,5,5
	c0,6.1,1.1,11.8,2.9,17.9c0.4,1.4,0,3.6-1.1,5L17.9,39.3c6.8,14,19,25.5,33,33L62,61.1c1.4-1.4,3.6-2.2,5-1.1
	c5.4,2.2,11.5,2.9,17.9,2.9c2.9,0,5,2.2,5,5v16.9H89.6z"/>
</svg>
