<?xml version="1.0" encoding="utf-8"?>
<!-- Generator: Adobe Illustrator 24.3.0, SVG Export Plug-In . SVG Version: 6.00 Build 0)  -->
<svg version="1.1" id="Capa_1" xmlns="http://www.w3.org/2000/svg" xmlns:xlink="http://www.w3.org/1999/xlink" x="0px" y="0px"
	 viewBox="0 0 90 90" style="enable-background:new 0 0 90 90;" xml:space="preserve">
<style type="text/css">
	.st0{fill:#FFFFFF;}
</style>
<path class="st0" d="M89.9,36.1C88.9,16,69.1,0,45,0C20.1,0,0,16.9,0,37.8C0,57,17,72.9,39.1,75.3c1.3,0.2,2.3,1.4,2.2,2.9l-0.9,8.9
	c-0.2,2,1.8,3.5,3.5,2.6C62.4,80.2,73.6,70.5,80.2,62c1.2-1.5,5.2-7.4,6-8.9c1.7-3.3,2.9-6.8,3.4-10.4c0.2-1.2,0.3-2.1,0.4-2.9
	C90,38.5,90,36.7,89.9,36.1z M27.2,50.1h-9.2c-1.3,0-2.3-1-2.3-2.3V30.4c0-0.6,0.3-1.2,0.7-1.6c0.4-0.4,1-0.7,1.6-0.7
	c1.3,0,2.3,1,2.3,2.3v15.1h6.9c0.6,0,1.2,0.3,1.6,0.7c0.4,0.4,0.7,1,0.7,1.6C29.5,49,28.4,50.1,27.2,50.1z M36.2,48.3
	c0,1-0.8,1.8-1.8,1.8h-1c-1,0-1.8-0.8-1.8-1.8V29.9c0-1,0.8-1.8,1.8-1.8h1c1,0,1.8,0.8,1.8,1.8V48.3z M57.6,47.7
	c0,1.3-1,2.4-2.3,2.4c-0.6,0-1.1-0.2-1.6-0.6c-0.1-0.1-9.5-12.2-9.5-12.2v10.6c0,0.6-0.3,1.2-0.7,1.6c-0.4,0.4-1,0.7-1.6,0.7
	c-1.3,0-2.3-1-2.3-2.3V30.5c0-1.2,1-2.3,2.2-2.4c0.7,0,1.4,0.3,1.8,0.8C43.9,29,53,41,53,41V30.4c0-0.6,0.3-1.2,0.7-1.6
	c0.4-0.4,1-0.7,1.6-0.7c1.3,0,2.3,1,2.3,2.3V47.7z M72.6,36.8c0.6,0,1.2,0.3,1.6,0.7c0.4,0.4,0.7,1,0.7,1.6c0,1.3-1,2.3-2.3,2.3
	h-6.9v4.1h6.9c0.6,0,1.2,0.3,1.6,0.7c0.4,0.4,0.7,1,0.7,1.6c0,1.3-1,2.3-2.3,2.3h-9.2c-1.3,0-2.3-1-2.3-2.3V30.4
	c0-1.3,1-2.3,2.3-2.3h9.2c1.3,0,2.3,1,2.3,2.3c0,1.3-1,2.3-2.3,2.3h-6.9v4.1H72.6z"/>
</svg>
